STARTFONT 2.1
COMMENT
COMMENT Converted from OpenType font "PixelIconsCompilation.ttf" by "otf2bdf 3.0".
COMMENT
FONT -FreeType-Pixel Icons Compilation-Medium-R-Normal--17-120-100-100-P-40-ISO10646-1
SIZE 12 100 100
FONTBOUNDINGBOX 24 12 0 0
STARTPROPERTIES 19
FOUNDRY "FreeType"
FAMILY_NAME "Pixel Icons Compilation"
WEIGHT_NAME "Medium"
SLANT "R"
SETWIDTH_NAME "Normal"
ADD_STYLE_NAME ""
PIXEL_SIZE 17
POINT_SIZE 120
RESOLUTION_X 100
RESOLUTION_Y 100
SPACING "P"
AVERAGE_WIDTH 40
CHARSET_REGISTRY "ISO10646"
CHARSET_ENCODING "1"
FONT_ASCENT 14
FONT_DESCENT 3
COPYRIGHT "Typeface ©WOODCUTTER MANERO MMXVI All Rights Reserved"
_OTF_FONTFILE "PixelIconsCompilation.ttf"
_OTF_PSNAME "PixelIconsCompilation"
ENDPROPERTIES
CHARS 240
STARTCHAR 0020
ENCODING 32
SWIDTH 240 0
DWIDTH 4 0
BBX 0 0 0 0
BITMAP
ENDCHAR
STARTCHAR 0021
ENCODING 33
SWIDTH 1440 0
DWIDTH 24 0
BBX 23 12 1 0
BITMAP
F70FD0
D25210
F22390
C25212
C70FDE
000000
8E1FB2
DCDFB6
5ECB32
022800
FFEB9C
FFEB36
ENDCHAR
STARTCHAR 0022
ENCODING 34
SWIDTH 780 0
DWIDTH 13 0
BBX 12 12 0 0
BITMAP
0FE0
0FE0
1FF0
1FF0
FFF0
1010
1010
1110
1010
1810
1810
0FF0
ENDCHAR
STARTCHAR 0023
ENCODING 35
SWIDTH 900 0
DWIDTH 15 0
BBX 13 12 1 0
BITMAP
1C00
3C08
3C08
FC38
FFF8
FFC0
8040
A0C0
21C0
FFF0
FFF0
E070
ENDCHAR
STARTCHAR 0024
ENCODING 36
SWIDTH 780 0
DWIDTH 13 0
BBX 0 0 0 0
BITMAP
ENDCHAR
STARTCHAR 0025
ENCODING 37
SWIDTH 780 0
DWIDTH 13 0
BBX 0 0 0 0
BITMAP
ENDCHAR
STARTCHAR 0026
ENCODING 38
SWIDTH 840 0
DWIDTH 14 0
BBX 0 0 0 0
BITMAP
ENDCHAR
STARTCHAR 0027
ENCODING 39
SWIDTH 180 0
DWIDTH 3 0
BBX 0 0 0 0
BITMAP
ENDCHAR
STARTCHAR 0028
ENCODING 40
SWIDTH 360 0
DWIDTH 6 0
BBX 0 0 0 0
BITMAP
ENDCHAR
STARTCHAR 0029
ENCODING 41
SWIDTH 360 0
DWIDTH 6 0
BBX 0 0 0 0
BITMAP
ENDCHAR
STARTCHAR 002A
ENCODING 42
SWIDTH 480 0
DWIDTH 8 0
BBX 0 0 0 0
BITMAP
ENDCHAR
STARTCHAR 002B
ENCODING 43
SWIDTH 480 0
DWIDTH 8 0
BBX 0 0 0 0
BITMAP
ENDCHAR
STARTCHAR 002C
ENCODING 44
SWIDTH 300 0
DWIDTH 5 0
BBX 0 0 0 0
BITMAP
ENDCHAR
STARTCHAR 002D
ENCODING 45
SWIDTH 300 0
DWIDTH 5 0
BBX 0 0 0 0
BITMAP
ENDCHAR
STARTCHAR 002E
ENCODING 46
SWIDTH 300 0
DWIDTH 5 0
BBX 0 0 0 0
BITMAP
ENDCHAR
STARTCHAR 002F
ENCODING 47
SWIDTH 300 0
DWIDTH 5 0
BBX 0 0 0 0
BITMAP
ENDCHAR
STARTCHAR 0030
ENCODING 48
SWIDTH 780 0
DWIDTH 13 0
BBX 11 12 1 0
BITMAP
03E0
0220
0220
05A0
0320
7C20
8020
8020
FFE0
FFE0
FFE0
94A0
ENDCHAR
STARTCHAR 0031
ENCODING 49
SWIDTH 780 0
DWIDTH 13 0
BBX 11 12 1 0
BITMAP
7FC0
EA60
EA60
94A0
EA60
94A0
8020
EA60
94A0
EA60
6A40
7FC0
ENDCHAR
STARTCHAR 0032
ENCODING 50
SWIDTH 780 0
DWIDTH 13 0
BBX 11 12 1 0
BITMAP
4040
C060
C060
FFE0
BFA0
FBE0
FBE0
E0E0
FFE0
FFE0
7FC0
7FC0
ENDCHAR
STARTCHAR 0033
ENCODING 51
SWIDTH 780 0
DWIDTH 13 0
BBX 11 12 1 0
BITMAP
0200
0400
0400
7FC0
DFE0
BFE0
FFE0
FFE0
FFE0
7FC0
7FC0
3F80
ENDCHAR
STARTCHAR 0034
ENCODING 52
SWIDTH 840 0
DWIDTH 14 0
BBX 12 12 1 0
BITMAP
0400
3F80
3F80
3FC0
FFF0
2040
2040
2F40
2F40
2F40
2940
3FC0
ENDCHAR
STARTCHAR 0035
ENCODING 53
SWIDTH 780 0
DWIDTH 13 0
BBX 11 12 1 0
BITMAP
7800
4C00
4C00
7F00
FBC0
97E0
97E0
9FE0
9FE0
9FE0
9FE0
14A0
ENDCHAR
STARTCHAR 0036
ENCODING 54
SWIDTH 780 0
DWIDTH 13 0
BBX 11 12 1 0
BITMAP
F800
F800
F800
FFE0
8020
FFE0
FFE0
FFE0
FFE0
FFE0
FFE0
FFE0
ENDCHAR
STARTCHAR 0037
ENCODING 55
SWIDTH 780 0
DWIDTH 13 0
BBX 11 12 1 0
BITMAP
3B80
C060
C060
FBE0
8020
BFA0
B4A0
F4E0
3F80
7FC0
7FC0
4040
ENDCHAR
STARTCHAR 0038
ENCODING 56
SWIDTH 660 0
DWIDTH 11 0
BBX 9 12 1 0
BITMAP
1C00
4200
0000
8080
8880
9480
9480
9480
7E00
1C00
1C00
1C00
ENDCHAR
STARTCHAR 0039
ENCODING 57
SWIDTH 780 0
DWIDTH 13 0
BBX 11 12 1 0
BITMAP
EF60
90A0
0040
4F40
90A0
94A0
90A0
90A0
6F40
90A0
8120
EF60
ENDCHAR
STARTCHAR 003A
ENCODING 58
SWIDTH 300 0
DWIDTH 5 0
BBX 0 0 0 0
BITMAP
ENDCHAR
STARTCHAR 003B
ENCODING 59
SWIDTH 300 0
DWIDTH 5 0
BBX 0 0 0 0
BITMAP
ENDCHAR
STARTCHAR 003C
ENCODING 60
SWIDTH 480 0
DWIDTH 8 0
BBX 0 0 0 0
BITMAP
ENDCHAR
STARTCHAR 003D
ENCODING 61
SWIDTH 480 0
DWIDTH 8 0
BBX 0 0 0 0
BITMAP
ENDCHAR
STARTCHAR 003E
ENCODING 62
SWIDTH 480 0
DWIDTH 8 0
BBX 0 0 0 0
BITMAP
ENDCHAR
STARTCHAR 003F
ENCODING 63
SWIDTH 360 0
DWIDTH 6 0
BBX 0 0 0 0
BITMAP
ENDCHAR
STARTCHAR 0040
ENCODING 64
SWIDTH 960 0
DWIDTH 16 0
BBX 0 0 0 0
BITMAP
ENDCHAR
STARTCHAR 0041
ENCODING 65
SWIDTH 780 0
DWIDTH 13 0
BBX 12 12 1 0
BITMAP
7FC0
FFF0
FFF0
EF70
EF70
EF70
EF70
EB70
7FC0
1F80
1F80
1480
ENDCHAR
STARTCHAR 0042
ENCODING 66
SWIDTH 900 0
DWIDTH 15 0
BBX 13 12 1 0
BITMAP
3DE0
3DE0
FFF8
FFF8
FFF8
FFF8
FFF8
3FE0
1FC0
0780
0780
0200
ENDCHAR
STARTCHAR 0043
ENCODING 67
SWIDTH 840 0
DWIDTH 14 0
BBX 12 12 1 0
BITMAP
0F00
0F00
0F00
0400
1F80
0400
0400
2440
F4F0
2440
2440
1B80
ENDCHAR
STARTCHAR 0044
ENCODING 68
SWIDTH 480 0
DWIDTH 8 0
BBX 6 12 1 0
BITMAP
10
78
78
EC
84
E4
84
84
FC
10
10
78
ENDCHAR
STARTCHAR 0045
ENCODING 69
SWIDTH 780 0
DWIDTH 13 0
BBX 11 12 1 0
BITMAP
8200
FE00
1C00
1C00
7C00
1FC0
1FC0
1FE0
1FE0
14A0
14A0
14A0
ENDCHAR
STARTCHAR 0046
ENCODING 70
SWIDTH 1020 0
DWIDTH 17 0
BBX 15 12 1 0
BITMAP
0100
0100
0F02
F7FE
F7FE
FFFE
FFFE
FFFE
0FFE
0FFE
0922
0922
ENDCHAR
STARTCHAR 0047
ENCODING 71
SWIDTH 780 0
DWIDTH 13 0
BBX 12 12 1 0
BITMAP
0400
2440
2440
0000
0F00
EF70
0F00
0F00
0000
2440
2440
0400
ENDCHAR
STARTCHAR 0048
ENCODING 72
SWIDTH 780 0
DWIDTH 13 0
BBX 11 12 1 0
BITMAP
0F00
7FC0
7FC0
7FC0
FFE0
94A0
94A0
0400
0400
0400
0400
0C00
ENDCHAR
STARTCHAR 0049
ENCODING 73
SWIDTH 660 0
DWIDTH 11 0
BBX 9 12 1 0
BITMAP
7F00
1400
1400
1400
7700
E380
E380
8080
FF80
EF80
6E00
7E00
ENDCHAR
STARTCHAR 004A
ENCODING 74
SWIDTH 780 0
DWIDTH 13 0
BBX 11 12 1 0
BITMAP
0380
0780
0780
0F20
7FE0
95E0
95E0
FFC0
0F00
0780
0780
0380
ENDCHAR
STARTCHAR 004B
ENCODING 75
SWIDTH 780 0
DWIDTH 13 0
BBX 11 12 1 0
BITMAP
0780
9FC0
9FC0
F840
9840
3FC0
3FC0
FFE0
EDE0
EDE0
9360
7FC0
ENDCHAR
STARTCHAR 004C
ENCODING 76
SWIDTH 780 0
DWIDTH 13 0
BBX 11 12 1 0
BITMAP
7FC0
FFE0
FFE0
FFE0
FFE0
FFE0
FFE0
9FA0
FFE0
4A40
4A40
CA60
ENDCHAR
STARTCHAR 004D
ENCODING 77
SWIDTH 780 0
DWIDTH 13 0
BBX 11 12 1 0
BITMAP
0900
EF60
6F40
7FC0
0F00
FFE0
0F00
0F00
3FC0
2FC0
EF60
0200
ENDCHAR
STARTCHAR 004E
ENCODING 78
SWIDTH 780 0
DWIDTH 13 0
BBX 11 12 1 0
BITMAP
0820
0820
0FE0
0CA0
8FE0
FFC0
FFC0
FF80
FF80
9480
9480
9480
ENDCHAR
STARTCHAR 004F
ENCODING 79
SWIDTH 780 0
DWIDTH 13 0
BBX 11 12 1 0
BITMAP
1000
7000
FFE0
7000
7000
1000
0100
01C0
FFE0
01C0
01C0
0100
ENDCHAR
STARTCHAR 0050
ENCODING 80
SWIDTH 780 0
DWIDTH 13 0
BBX 11 12 1 0
BITMAP
FFE0
8020
8020
94A0
88A0
8020
8020
EA60
9580
9480
9480
FF80
ENDCHAR
STARTCHAR 0051
ENCODING 81
SWIDTH 780 0
DWIDTH 13 0
BBX 11 12 1 0
BITMAP
0F00
0F00
7F00
3FC0
39C0
FFE0
20C0
20C0
29C0
20C0
20C0
7F00
ENDCHAR
STARTCHAR 0052
ENCODING 82
SWIDTH 1020 0
DWIDTH 17 0
BBX 15 12 1 0
BITMAP
01FE
01FE
01FE
07FE
07FE
1FE2
1FE2
FFC2
FFC2
FF02
FE02
FE02
ENDCHAR
STARTCHAR 0053
ENCODING 83
SWIDTH 840 0
DWIDTH 14 0
BBX 12 12 1 0
BITMAP
F490
F490
F490
F490
F7F0
2080
2080
2080
2080
2080
2080
2080
ENDCHAR
STARTCHAR 0054
ENCODING 84
SWIDTH 780 0
DWIDTH 13 0
BBX 12 12 1 0
BITMAP
0100
2000
0000
0E40
1E00
1E00
11C0
3FC0
3FC0
3FC0
F870
FFF0
ENDCHAR
STARTCHAR 0055
ENCODING 85
SWIDTH 780 0
DWIDTH 13 0
BBX 12 12 1 0
BITMAP
0400
FBF0
0600
0400
1F00
1700
3710
27F0
3F80
3F80
1100
3FE0
ENDCHAR
STARTCHAR 0056
ENCODING 86
SWIDTH 780 0
DWIDTH 13 0
BBX 11 12 1 0
BITMAP
7FC0
7FC0
FFE0
80A0
80E0
80A0
80A0
80E0
FFA0
FFE0
FFE0
4040
ENDCHAR
STARTCHAR 0057
ENCODING 87
SWIDTH 840 0
DWIDTH 14 0
BBX 12 12 1 0
BITMAP
0F00
3F80
3F80
F780
3F90
FFF0
FFF0
38E0
3F80
0900
0900
0900
ENDCHAR
STARTCHAR 0058
ENCODING 88
SWIDTH 780 0
DWIDTH 13 0
BBX 11 12 1 0
BITMAP
0A00
4440
2480
1480
8F20
7BC0
8A40
8E20
1580
6440
0C00
0A00
ENDCHAR
STARTCHAR 0059
ENCODING 89
SWIDTH 780 0
DWIDTH 13 0
BBX 11 12 1 0
BITMAP
9FA0
94A0
9FA0
9FA0
9FA0
FFE0
1480
1480
94A0
94A0
94A0
F4E0
ENDCHAR
STARTCHAR 005A
ENCODING 90
SWIDTH 780 0
DWIDTH 13 0
BBX 11 12 1 0
BITMAP
3F80
4080
8060
8020
90A0
8020
8020
8F20
90A0
6040
2000
1F80
ENDCHAR
STARTCHAR 005B
ENCODING 91
SWIDTH 360 0
DWIDTH 6 0
BBX 0 0 0 0
BITMAP
ENDCHAR
STARTCHAR 005C
ENCODING 92
SWIDTH 300 0
DWIDTH 5 0
BBX 0 0 0 0
BITMAP
ENDCHAR
STARTCHAR 005D
ENCODING 93
SWIDTH 360 0
DWIDTH 6 0
BBX 0 0 0 0
BITMAP
ENDCHAR
STARTCHAR 005E
ENCODING 94
SWIDTH 480 0
DWIDTH 8 0
BBX 0 0 0 0
BITMAP
ENDCHAR
STARTCHAR 005F
ENCODING 95
SWIDTH 480 0
DWIDTH 8 0
BBX 0 0 0 0
BITMAP
ENDCHAR
STARTCHAR 0060
ENCODING 96
SWIDTH 480 0
DWIDTH 8 0
BBX 0 0 0 0
BITMAP
ENDCHAR
STARTCHAR 0061
ENCODING 97
SWIDTH 900 0
DWIDTH 15 0
BBX 13 12 1 0
BITMAP
0408
0400
03E0
05D8
05C8
07F8
7FE0
FFC0
FFC0
FFC0
FFC0
9240
ENDCHAR
STARTCHAR 0062
ENCODING 98
SWIDTH 780 0
DWIDTH 13 0
BBX 11 12 1 0
BITMAP
FF80
FFE0
FFA0
FFA0
EBA0
E3A0
E3A0
F7A0
FFE0
FF80
FF80
7F00
ENDCHAR
STARTCHAR 0063
ENCODING 99
SWIDTH 720 0
DWIDTH 12 0
BBX 11 12 1 0
BITMAP
1FC0
1F80
7F80
7800
FE80
7A80
7BC0
17E0
03C0
1FC0
1FC0
7F80
ENDCHAR
STARTCHAR 0064
ENCODING 100
SWIDTH 960 0
DWIDTH 16 0
BBX 14 12 1 0
BITMAP
0300
0FC0
0FC0
0CC0
0FC0
0CC0
0CC0
0FC0
3FF0
3330
3330
F33C
ENDCHAR
STARTCHAR 0065
ENCODING 101
SWIDTH 780 0
DWIDTH 13 0
BBX 12 12 0 0
BITMAP
07F0
0410
0410
3C10
2410
FC10
FC10
FC10
FFF0
FFF0
FFF0
39C0
ENDCHAR
STARTCHAR 0066
ENCODING 102
SWIDTH 600 0
DWIDTH 10 0
BBX 9 12 1 0
BITMAP
7E00
CF80
CF80
BF80
FF80
FF80
7E00
7E00
0800
0800
0800
3C00
ENDCHAR
STARTCHAR 0067
ENCODING 103
SWIDTH 780 0
DWIDTH 13 0
BBX 11 12 1 0
BITMAP
1F80
7FC0
7FC0
E060
8820
87A0
8020
E060
E060
FFE0
1080
1080
ENDCHAR
STARTCHAR 0068
ENCODING 104
SWIDTH 720 0
DWIDTH 12 0
BBX 11 12 0 0
BITMAP
0080
0080
0080
03E0
0080
0080
0080
0080
07E0
1FE0
1FE0
FFE0
ENDCHAR
STARTCHAR 0069
ENCODING 105
SWIDTH 840 0
DWIDTH 14 0
BBX 12 12 1 0
BITMAP
07F0
7410
7410
FF90
FF90
FF90
FF90
FF90
FF90
FFF0
FFF0
FFF0
ENDCHAR
STARTCHAR 006A
ENCODING 106
SWIDTH 660 0
DWIDTH 11 0
BBX 9 12 1 0
BITMAP
FF80
8080
8080
8080
8080
FF80
9480
9480
EB80
9480
9480
7F00
ENDCHAR
STARTCHAR 006B
ENCODING 107
SWIDTH 780 0
DWIDTH 13 0
BBX 11 12 1 0
BITMAP
0800
7E20
7E20
FEE0
BFC0
FFC0
FFC0
FFC0
7EE0
3C20
3C20
0200
ENDCHAR
STARTCHAR 006C
ENCODING 108
SWIDTH 780 0
DWIDTH 13 0
BBX 11 12 1 0
BITMAP
0380
0780
0FA0
0F20
7FE0
94E0
94E0
FFC0
0F00
0F80
0780
0380
ENDCHAR
STARTCHAR 006D
ENCODING 109
SWIDTH 780 0
DWIDTH 13 0
BBX 11 12 1 0
BITMAP
71C0
0000
0000
71C0
8A20
8A20
CBA0
CBA0
CBA0
8A20
8A20
71C0
ENDCHAR
STARTCHAR 006E
ENCODING 110
SWIDTH 780 0
DWIDTH 13 0
BBX 12 12 1 0
BITMAP
8080
C100
C000
F800
F800
FE70
FE00
FF00
F800
FC80
9480
8440
ENDCHAR
STARTCHAR 006F
ENCODING 111
SWIDTH 780 0
DWIDTH 13 0
BBX 12 12 1 0
BITMAP
7FE0
FFF0
FFF0
E070
0F00
3F80
3F80
7BE0
74E0
7BE0
7BE0
FFF0
ENDCHAR
STARTCHAR 0070
ENCODING 112
SWIDTH 780 0
DWIDTH 13 0
BBX 12 12 1 0
BITMAP
0400
2440
2440
0000
0F00
EF70
0F00
0F00
0000
2440
2440
0400
ENDCHAR
STARTCHAR 0071
ENCODING 113
SWIDTH 840 0
DWIDTH 14 0
BBX 12 12 1 0
BITMAP
0F00
7FC0
7FC0
7FC0
FFF0
9490
9490
0400
0400
0400
0400
0C00
ENDCHAR
STARTCHAR 0072
ENCODING 114
SWIDTH 780 0
DWIDTH 13 0
BBX 12 12 1 0
BITMAP
7FC0
FFF0
FFF0
EF70
EF70
EF70
EF70
E970
7FC0
1F80
1F80
1480
ENDCHAR
STARTCHAR 0073
ENCODING 115
SWIDTH 780 0
DWIDTH 13 0
BBX 11 12 1 0
BITMAP
4460
7C20
7C20
FF20
A7A0
FFE0
FFE0
7FE0
7FE0
24A0
24A0
24A0
ENDCHAR
STARTCHAR 0074
ENCODING 116
SWIDTH 780 0
DWIDTH 13 0
BBX 12 12 0 0
BITMAP
01E0
03C0
03C0
0640
0440
0440
0440
3C60
FDF0
FDF0
FDF0
3860
ENDCHAR
STARTCHAR 0075
ENCODING 117
SWIDTH 780 0
DWIDTH 13 0
BBX 12 12 0 0
BITMAP
F000
F000
F000
1000
1000
1000
1000
1FF0
1FE0
1FE0
1FE0
1020
ENDCHAR
STARTCHAR 0076
ENCODING 118
SWIDTH 600 0
DWIDTH 10 0
BBX 9 12 1 0
BITMAP
1C00
1C00
1C00
0800
F780
1C00
1C00
1C00
1C00
1400
1400
1400
ENDCHAR
STARTCHAR 0077
ENCODING 119
SWIDTH 960 0
DWIDTH 16 0
BBX 15 12 0 0
BITMAP
0E70
0E70
3FF8
3738
3738
FFFE
FFFE
FFFE
3008
3008
3008
0FF0
ENDCHAR
STARTCHAR 0078
ENCODING 120
SWIDTH 780 0
DWIDTH 13 0
BBX 11 12 1 0
BITMAP
0F00
1F80
1F80
9FA0
9FA0
F4E0
F4E0
7FC0
1080
0F00
0F00
1F80
ENDCHAR
STARTCHAR 0079
ENCODING 121
SWIDTH 600 0
DWIDTH 10 0
BBX 9 12 1 0
BITMAP
1C00
1C00
1C00
0800
F780
1C00
1C00
7F00
FF80
1400
1400
1400
ENDCHAR
STARTCHAR 007A
ENCODING 122
SWIDTH 660 0
DWIDTH 11 0
BBX 9 12 1 0
BITMAP
0800
3C00
3C00
BC00
BC80
FF80
FF80
3F80
3C00
3C00
3C00
7E00
ENDCHAR
STARTCHAR 007B
ENCODING 123
SWIDTH 720 0
DWIDTH 12 0
BBX 0 0 0 0
BITMAP
ENDCHAR
STARTCHAR 007C
ENCODING 124
SWIDTH 780 0
DWIDTH 13 0
BBX 0 0 0 0
BITMAP
ENDCHAR
STARTCHAR 007D
ENCODING 125
SWIDTH 780 0
DWIDTH 13 0
BBX 0 0 0 0
BITMAP
ENDCHAR
STARTCHAR 007E
ENCODING 126
SWIDTH 480 0
DWIDTH 8 0
BBX 0 0 0 0
BITMAP
ENDCHAR
STARTCHAR 00A0
ENCODING 160
SWIDTH 240 0
DWIDTH 4 0
BBX 0 0 0 0
BITMAP
ENDCHAR
STARTCHAR 00A1
ENCODING 161
SWIDTH 300 0
DWIDTH 5 0
BBX 0 0 0 0
BITMAP
ENDCHAR
STARTCHAR 00A2
ENCODING 162
SWIDTH 540 0
DWIDTH 9 0
BBX 0 0 0 0
BITMAP
ENDCHAR
STARTCHAR 00A3
ENCODING 163
SWIDTH 480 0
DWIDTH 8 0
BBX 0 0 0 0
BITMAP
ENDCHAR
STARTCHAR 00A4
ENCODING 164
SWIDTH 480 0
DWIDTH 8 0
BBX 0 0 0 0
BITMAP
ENDCHAR
STARTCHAR 00A5
ENCODING 165
SWIDTH 600 0
DWIDTH 10 0
BBX 0 0 0 0
BITMAP
ENDCHAR
STARTCHAR 00A6
ENCODING 166
SWIDTH 480 0
DWIDTH 8 0
BBX 0 0 0 0
BITMAP
ENDCHAR
STARTCHAR 00A7
ENCODING 167
SWIDTH 480 0
DWIDTH 8 0
BBX 0 0 0 0
BITMAP
ENDCHAR
STARTCHAR 00A8
ENCODING 168
SWIDTH 480 0
DWIDTH 8 0
BBX 0 0 0 0
BITMAP
ENDCHAR
STARTCHAR 00A9
ENCODING 169
SWIDTH 1440 0
DWIDTH 24 0
BBX 23 12 1 0
BITMAP
F70FD0
D25210
F22390
C25212
C70FDE
000000
8E1FB2
DCDFB6
5ECB32
FEFF8E
FFFF2E
7A572C
ENDCHAR
STARTCHAR 00AA
ENCODING 170
SWIDTH 300 0
DWIDTH 5 0
BBX 0 0 0 0
BITMAP
ENDCHAR
STARTCHAR 00AB
ENCODING 171
SWIDTH 480 0
DWIDTH 8 0
BBX 0 0 0 0
BITMAP
ENDCHAR
STARTCHAR 00AC
ENCODING 172
SWIDTH 480 0
DWIDTH 8 0
BBX 0 0 0 0
BITMAP
ENDCHAR
STARTCHAR 00AD
ENCODING 173
SWIDTH 300 0
DWIDTH 5 0
BBX 0 0 0 0
BITMAP
ENDCHAR
STARTCHAR 00AE
ENCODING 174
SWIDTH 1440 0
DWIDTH 24 0
BBX 23 12 1 0
BITMAP
F70FD0
D25210
F22390
C25212
C70FDE
000000
8E1FB2
DCDFB6
5ECB32
FEFF8E
FFFF2E
7A572C
ENDCHAR
STARTCHAR 00AF
ENCODING 175
SWIDTH 300 0
DWIDTH 5 0
BBX 0 0 0 0
BITMAP
ENDCHAR
STARTCHAR 00B0
ENCODING 176
SWIDTH 300 0
DWIDTH 5 0
BBX 0 0 0 0
BITMAP
ENDCHAR
STARTCHAR 00B1
ENCODING 177
SWIDTH 480 0
DWIDTH 8 0
BBX 0 0 0 0
BITMAP
ENDCHAR
STARTCHAR 00B2
ENCODING 178
SWIDTH 480 0
DWIDTH 8 0
BBX 0 0 0 0
BITMAP
ENDCHAR
STARTCHAR 00B3
ENCODING 179
SWIDTH 480 0
DWIDTH 8 0
BBX 0 0 0 0
BITMAP
ENDCHAR
STARTCHAR 00B4
ENCODING 180
SWIDTH 480 0
DWIDTH 8 0
BBX 0 0 0 0
BITMAP
ENDCHAR
STARTCHAR 00B5
ENCODING 181
SWIDTH 600 0
DWIDTH 10 0
BBX 0 0 0 0
BITMAP
ENDCHAR
STARTCHAR 00B6
ENCODING 182
SWIDTH 480 0
DWIDTH 8 0
BBX 0 0 0 0
BITMAP
ENDCHAR
STARTCHAR 00B7
ENCODING 183
SWIDTH 240 0
DWIDTH 4 0
BBX 0 0 0 0
BITMAP
ENDCHAR
STARTCHAR 00B8
ENCODING 184
SWIDTH 480 0
DWIDTH 8 0
BBX 0 0 0 0
BITMAP
ENDCHAR
STARTCHAR 00B9
ENCODING 185
SWIDTH 480 0
DWIDTH 8 0
BBX 0 0 0 0
BITMAP
ENDCHAR
STARTCHAR 00BA
ENCODING 186
SWIDTH 360 0
DWIDTH 6 0
BBX 0 0 0 0
BITMAP
ENDCHAR
STARTCHAR 00BB
ENCODING 187
SWIDTH 480 0
DWIDTH 8 0
BBX 0 0 0 0
BITMAP
ENDCHAR
STARTCHAR 00BC
ENCODING 188
SWIDTH 840 0
DWIDTH 14 0
BBX 0 0 0 0
BITMAP
ENDCHAR
STARTCHAR 00BD
ENCODING 189
SWIDTH 960 0
DWIDTH 16 0
BBX 0 0 0 0
BITMAP
ENDCHAR
STARTCHAR 00BE
ENCODING 190
SWIDTH 840 0
DWIDTH 14 0
BBX 0 0 0 0
BITMAP
ENDCHAR
STARTCHAR 00BF
ENCODING 191
SWIDTH 360 0
DWIDTH 6 0
BBX 0 0 0 0
BITMAP
ENDCHAR
STARTCHAR 00C0
ENCODING 192
SWIDTH 780 0
DWIDTH 13 0
BBX 0 0 0 0
BITMAP
ENDCHAR
STARTCHAR 00C1
ENCODING 193
SWIDTH 780 0
DWIDTH 13 0
BBX 0 0 0 0
BITMAP
ENDCHAR
STARTCHAR 00C2
ENCODING 194
SWIDTH 780 0
DWIDTH 13 0
BBX 0 0 0 0
BITMAP
ENDCHAR
STARTCHAR 00C3
ENCODING 195
SWIDTH 780 0
DWIDTH 13 0
BBX 0 0 0 0
BITMAP
ENDCHAR
STARTCHAR 00C4
ENCODING 196
SWIDTH 780 0
DWIDTH 13 0
BBX 0 0 0 0
BITMAP
ENDCHAR
STARTCHAR 00C5
ENCODING 197
SWIDTH 780 0
DWIDTH 13 0
BBX 0 0 0 0
BITMAP
ENDCHAR
STARTCHAR 00C6
ENCODING 198
SWIDTH 1020 0
DWIDTH 17 0
BBX 0 0 0 0
BITMAP
ENDCHAR
STARTCHAR 00C7
ENCODING 199
SWIDTH 660 0
DWIDTH 11 0
BBX 0 0 0 0
BITMAP
ENDCHAR
STARTCHAR 00C8
ENCODING 200
SWIDTH 540 0
DWIDTH 9 0
BBX 0 0 0 0
BITMAP
ENDCHAR
STARTCHAR 00C9
ENCODING 201
SWIDTH 540 0
DWIDTH 9 0
BBX 0 0 0 0
BITMAP
ENDCHAR
STARTCHAR 00CA
ENCODING 202
SWIDTH 540 0
DWIDTH 9 0
BBX 0 0 0 0
BITMAP
ENDCHAR
STARTCHAR 00CB
ENCODING 203
SWIDTH 540 0
DWIDTH 9 0
BBX 0 0 0 0
BITMAP
ENDCHAR
STARTCHAR 00CC
ENCODING 204
SWIDTH 300 0
DWIDTH 5 0
BBX 0 0 0 0
BITMAP
ENDCHAR
STARTCHAR 00CD
ENCODING 205
SWIDTH 300 0
DWIDTH 5 0
BBX 0 0 0 0
BITMAP
ENDCHAR
STARTCHAR 00CE
ENCODING 206
SWIDTH 300 0
DWIDTH 5 0
BBX 0 0 0 0
BITMAP
ENDCHAR
STARTCHAR 00CF
ENCODING 207
SWIDTH 300 0
DWIDTH 5 0
BBX 0 0 0 0
BITMAP
ENDCHAR
STARTCHAR 00D0
ENCODING 208
SWIDTH 720 0
DWIDTH 12 0
BBX 0 0 0 0
BITMAP
ENDCHAR
STARTCHAR 00D1
ENCODING 209
SWIDTH 780 0
DWIDTH 13 0
BBX 0 0 0 0
BITMAP
ENDCHAR
STARTCHAR 00D2
ENCODING 210
SWIDTH 780 0
DWIDTH 13 0
BBX 0 0 0 0
BITMAP
ENDCHAR
STARTCHAR 00D3
ENCODING 211
SWIDTH 780 0
DWIDTH 13 0
BBX 0 0 0 0
BITMAP
ENDCHAR
STARTCHAR 00D4
ENCODING 212
SWIDTH 780 0
DWIDTH 13 0
BBX 0 0 0 0
BITMAP
ENDCHAR
STARTCHAR 00D5
ENCODING 213
SWIDTH 780 0
DWIDTH 13 0
BBX 0 0 0 0
BITMAP
ENDCHAR
STARTCHAR 00D6
ENCODING 214
SWIDTH 780 0
DWIDTH 13 0
BBX 0 0 0 0
BITMAP
ENDCHAR
STARTCHAR 00D7
ENCODING 215
SWIDTH 480 0
DWIDTH 8 0
BBX 0 0 0 0
BITMAP
ENDCHAR
STARTCHAR 00D8
ENCODING 216
SWIDTH 780 0
DWIDTH 13 0
BBX 0 0 0 0
BITMAP
ENDCHAR
STARTCHAR 00D9
ENCODING 217
SWIDTH 720 0
DWIDTH 12 0
BBX 0 0 0 0
BITMAP
ENDCHAR
STARTCHAR 00DA
ENCODING 218
SWIDTH 720 0
DWIDTH 12 0
BBX 0 0 0 0
BITMAP
ENDCHAR
STARTCHAR 00DB
ENCODING 219
SWIDTH 720 0
DWIDTH 12 0
BBX 0 0 0 0
BITMAP
ENDCHAR
STARTCHAR 00DC
ENCODING 220
SWIDTH 720 0
DWIDTH 12 0
BBX 0 0 0 0
BITMAP
ENDCHAR
STARTCHAR 00DD
ENCODING 221
SWIDTH 600 0
DWIDTH 10 0
BBX 0 0 0 0
BITMAP
ENDCHAR
STARTCHAR 00DE
ENCODING 222
SWIDTH 540 0
DWIDTH 9 0
BBX 0 0 0 0
BITMAP
ENDCHAR
STARTCHAR 00DF
ENCODING 223
SWIDTH 600 0
DWIDTH 10 0
BBX 0 0 0 0
BITMAP
ENDCHAR
STARTCHAR 00E0
ENCODING 224
SWIDTH 480 0
DWIDTH 8 0
BBX 0 0 0 0
BITMAP
ENDCHAR
STARTCHAR 00E1
ENCODING 225
SWIDTH 480 0
DWIDTH 8 0
BBX 0 0 0 0
BITMAP
ENDCHAR
STARTCHAR 00E2
ENCODING 226
SWIDTH 480 0
DWIDTH 8 0
BBX 0 0 0 0
BITMAP
ENDCHAR
STARTCHAR 00E3
ENCODING 227
SWIDTH 480 0
DWIDTH 8 0
BBX 0 0 0 0
BITMAP
ENDCHAR
STARTCHAR 00E4
ENCODING 228
SWIDTH 480 0
DWIDTH 8 0
BBX 0 0 0 0
BITMAP
ENDCHAR
STARTCHAR 00E5
ENCODING 229
SWIDTH 480 0
DWIDTH 8 0
BBX 0 0 0 0
BITMAP
ENDCHAR
STARTCHAR 00E6
ENCODING 230
SWIDTH 720 0
DWIDTH 12 0
BBX 0 0 0 0
BITMAP
ENDCHAR
STARTCHAR 00E7
ENCODING 231
SWIDTH 420 0
DWIDTH 7 0
BBX 0 0 0 0
BITMAP
ENDCHAR
STARTCHAR 00E8
ENCODING 232
SWIDTH 420 0
DWIDTH 7 0
BBX 0 0 0 0
BITMAP
ENDCHAR
STARTCHAR 00E9
ENCODING 233
SWIDTH 420 0
DWIDTH 7 0
BBX 0 0 0 0
BITMAP
ENDCHAR
STARTCHAR 00EA
ENCODING 234
SWIDTH 420 0
DWIDTH 7 0
BBX 0 0 0 0
BITMAP
ENDCHAR
STARTCHAR 00EB
ENCODING 235
SWIDTH 420 0
DWIDTH 7 0
BBX 0 0 0 0
BITMAP
ENDCHAR
STARTCHAR 00EC
ENCODING 236
SWIDTH 240 0
DWIDTH 4 0
BBX 0 0 0 0
BITMAP
ENDCHAR
STARTCHAR 00ED
ENCODING 237
SWIDTH 240 0
DWIDTH 4 0
BBX 0 0 0 0
BITMAP
ENDCHAR
STARTCHAR 00EE
ENCODING 238
SWIDTH 240 0
DWIDTH 4 0
BBX 0 0 0 0
BITMAP
ENDCHAR
STARTCHAR 00EF
ENCODING 239
SWIDTH 240 0
DWIDTH 4 0
BBX 0 0 0 0
BITMAP
ENDCHAR
STARTCHAR 00F0
ENCODING 240
SWIDTH 540 0
DWIDTH 9 0
BBX 0 0 0 0
BITMAP
ENDCHAR
STARTCHAR 00F1
ENCODING 241
SWIDTH 540 0
DWIDTH 9 0
BBX 0 0 0 0
BITMAP
ENDCHAR
STARTCHAR 00F2
ENCODING 242
SWIDTH 480 0
DWIDTH 8 0
BBX 0 0 0 0
BITMAP
ENDCHAR
STARTCHAR 00F3
ENCODING 243
SWIDTH 480 0
DWIDTH 8 0
BBX 0 0 0 0
BITMAP
ENDCHAR
STARTCHAR 00F4
ENCODING 244
SWIDTH 480 0
DWIDTH 8 0
BBX 0 0 0 0
BITMAP
ENDCHAR
STARTCHAR 00F5
ENCODING 245
SWIDTH 480 0
DWIDTH 8 0
BBX 0 0 0 0
BITMAP
ENDCHAR
STARTCHAR 00F6
ENCODING 246
SWIDTH 480 0
DWIDTH 8 0
BBX 0 0 0 0
BITMAP
ENDCHAR
STARTCHAR 00F7
ENCODING 247
SWIDTH 480 0
DWIDTH 8 0
BBX 0 0 0 0
BITMAP
ENDCHAR
STARTCHAR 00F8
ENCODING 248
SWIDTH 480 0
DWIDTH 8 0
BBX 0 0 0 0
BITMAP
ENDCHAR
STARTCHAR 00F9
ENCODING 249
SWIDTH 540 0
DWIDTH 9 0
BBX 0 0 0 0
BITMAP
ENDCHAR
STARTCHAR 00FA
ENCODING 250
SWIDTH 540 0
DWIDTH 9 0
BBX 0 0 0 0
BITMAP
ENDCHAR
STARTCHAR 00FB
ENCODING 251
SWIDTH 540 0
DWIDTH 9 0
BBX 0 0 0 0
BITMAP
ENDCHAR
STARTCHAR 00FC
ENCODING 252
SWIDTH 540 0
DWIDTH 9 0
BBX 0 0 0 0
BITMAP
ENDCHAR
STARTCHAR 00FD
ENCODING 253
SWIDTH 420 0
DWIDTH 7 0
BBX 0 0 0 0
BITMAP
ENDCHAR
STARTCHAR 00FE
ENCODING 254
SWIDTH 480 0
DWIDTH 8 0
BBX 0 0 0 0
BITMAP
ENDCHAR
STARTCHAR 00FF
ENCODING 255
SWIDTH 420 0
DWIDTH 7 0
BBX 0 0 0 0
BITMAP
ENDCHAR
STARTCHAR 0131
ENCODING 305
SWIDTH 240 0
DWIDTH 4 0
BBX 0 0 0 0
BITMAP
ENDCHAR
STARTCHAR 02C6
ENCODING 710
SWIDTH 480 0
DWIDTH 8 0
BBX 0 0 0 0
BITMAP
ENDCHAR
STARTCHAR 02C7
ENCODING 711
SWIDTH 480 0
DWIDTH 8 0
BBX 0 0 0 0
BITMAP
ENDCHAR
STARTCHAR 02C9
ENCODING 713
SWIDTH 480 0
DWIDTH 8 0
BBX 0 0 0 0
BITMAP
ENDCHAR
STARTCHAR 02D8
ENCODING 728
SWIDTH 480 0
DWIDTH 8 0
BBX 0 0 0 0
BITMAP
ENDCHAR
STARTCHAR 02D9
ENCODING 729
SWIDTH 480 0
DWIDTH 8 0
BBX 0 0 0 0
BITMAP
ENDCHAR
STARTCHAR 02DA
ENCODING 730
SWIDTH 480 0
DWIDTH 8 0
BBX 0 0 0 0
BITMAP
ENDCHAR
STARTCHAR 02DB
ENCODING 731
SWIDTH 480 0
DWIDTH 8 0
BBX 0 0 0 0
BITMAP
ENDCHAR
STARTCHAR 02DC
ENCODING 732
SWIDTH 480 0
DWIDTH 8 0
BBX 0 0 0 0
BITMAP
ENDCHAR
STARTCHAR 02DD
ENCODING 733
SWIDTH 480 0
DWIDTH 8 0
BBX 0 0 0 0
BITMAP
ENDCHAR
STARTCHAR 037E
ENCODING 894
SWIDTH 300 0
DWIDTH 5 0
BBX 0 0 0 0
BITMAP
ENDCHAR
STARTCHAR 2013
ENCODING 8211
SWIDTH 540 0
DWIDTH 9 0
BBX 0 0 0 0
BITMAP
ENDCHAR
STARTCHAR 2014
ENCODING 8212
SWIDTH 1020 0
DWIDTH 17 0
BBX 0 0 0 0
BITMAP
ENDCHAR
STARTCHAR 2018
ENCODING 8216
SWIDTH 300 0
DWIDTH 5 0
BBX 0 0 0 0
BITMAP
ENDCHAR
STARTCHAR 2019
ENCODING 8217
SWIDTH 300 0
DWIDTH 5 0
BBX 0 0 0 0
BITMAP
ENDCHAR
STARTCHAR 201A
ENCODING 8218
SWIDTH 300 0
DWIDTH 5 0
BBX 0 0 0 0
BITMAP
ENDCHAR
STARTCHAR 201C
ENCODING 8220
SWIDTH 420 0
DWIDTH 7 0
BBX 0 0 0 0
BITMAP
ENDCHAR
STARTCHAR 201D
ENCODING 8221
SWIDTH 420 0
DWIDTH 7 0
BBX 0 0 0 0
BITMAP
ENDCHAR
STARTCHAR 201E
ENCODING 8222
SWIDTH 420 0
DWIDTH 7 0
BBX 0 0 0 0
BITMAP
ENDCHAR
STARTCHAR 2020
ENCODING 8224
SWIDTH 480 0
DWIDTH 8 0
BBX 0 0 0 0
BITMAP
ENDCHAR
STARTCHAR 2021
ENCODING 8225
SWIDTH 480 0
DWIDTH 8 0
BBX 0 0 0 0
BITMAP
ENDCHAR
STARTCHAR 2022
ENCODING 8226
SWIDTH 480 0
DWIDTH 8 0
BBX 0 0 0 0
BITMAP
ENDCHAR
STARTCHAR 2026
ENCODING 8230
SWIDTH 1020 0
DWIDTH 17 0
BBX 0 0 0 0
BITMAP
ENDCHAR
STARTCHAR 2039
ENCODING 8249
SWIDTH 300 0
DWIDTH 5 0
BBX 0 0 0 0
BITMAP
ENDCHAR
STARTCHAR 203A
ENCODING 8250
SWIDTH 300 0
DWIDTH 5 0
BBX 0 0 0 0
BITMAP
ENDCHAR
STARTCHAR 2044
ENCODING 8260
SWIDTH 180 0
DWIDTH 3 0
BBX 0 0 0 0
BITMAP
ENDCHAR
STARTCHAR 20A3
ENCODING 8355
SWIDTH 480 0
DWIDTH 8 0
BBX 0 0 0 0
BITMAP
ENDCHAR
STARTCHAR 20A4
ENCODING 8356
SWIDTH 480 0
DWIDTH 8 0
BBX 0 0 0 0
BITMAP
ENDCHAR
STARTCHAR 20A7
ENCODING 8359
SWIDTH 1020 0
DWIDTH 17 0
BBX 0 0 0 0
BITMAP
ENDCHAR
STARTCHAR 20AC
ENCODING 8364
SWIDTH 1440 0
DWIDTH 24 0
BBX 23 12 1 0
BITMAP
F70FD0
D25210
F22390
C25212
C70FDE
000000
8E1FB2
DCDFB6
5ECB32
022800
FFEB9C
FFEB36
ENDCHAR
STARTCHAR 2116
ENCODING 8470
SWIDTH 1440 0
DWIDTH 24 0
BBX 23 12 0 0
BITMAP
7745D0
522910
7211D0
422912
4745DE
000000
000020
3EFF7E
7C7ED6
021800
EF5B9C
EFD6BE
ENDCHAR
STARTCHAR 2122
ENCODING 8482
SWIDTH 1440 0
DWIDTH 24 0
BBX 23 12 0 0
BITMAP
7745D0
522910
7211D0
422912
4745DE
000000
000020
3EFF7E
7C7ED6
021800
EF5B9C
EFD6BE
ENDCHAR
STARTCHAR 2202
ENCODING 8706
SWIDTH 480 0
DWIDTH 8 0
BBX 0 0 0 0
BITMAP
ENDCHAR
STARTCHAR 2206
ENCODING 8710
SWIDTH 540 0
DWIDTH 9 0
BBX 0 0 0 0
BITMAP
ENDCHAR
STARTCHAR 220F
ENCODING 8719
SWIDTH 720 0
DWIDTH 12 0
BBX 0 0 0 0
BITMAP
ENDCHAR
STARTCHAR 2211
ENCODING 8721
SWIDTH 600 0
DWIDTH 10 0
BBX 0 0 0 0
BITMAP
ENDCHAR
STARTCHAR 2212
ENCODING 8722
SWIDTH 480 0
DWIDTH 8 0
BBX 0 0 0 0
BITMAP
ENDCHAR
STARTCHAR 2215
ENCODING 8725
SWIDTH 180 0
DWIDTH 3 0
BBX 0 0 0 0
BITMAP
ENDCHAR
STARTCHAR 2219
ENCODING 8729
SWIDTH 240 0
DWIDTH 4 0
BBX 0 0 0 0
BITMAP
ENDCHAR
STARTCHAR 221A
ENCODING 8730
SWIDTH 480 0
DWIDTH 8 0
BBX 0 0 0 0
BITMAP
ENDCHAR
STARTCHAR 221E
ENCODING 8734
SWIDTH 480 0
DWIDTH 8 0
BBX 0 0 0 0
BITMAP
ENDCHAR
STARTCHAR 222B
ENCODING 8747
SWIDTH 300 0
DWIDTH 5 0
BBX 0 0 0 0
BITMAP
ENDCHAR
STARTCHAR 2248
ENCODING 8776
SWIDTH 480 0
DWIDTH 8 0
BBX 0 0 0 0
BITMAP
ENDCHAR
STARTCHAR 2264
ENCODING 8804
SWIDTH 480 0
DWIDTH 8 0
BBX 0 0 0 0
BITMAP
ENDCHAR
STARTCHAR 2265
ENCODING 8805
SWIDTH 480 0
DWIDTH 8 0
BBX 0 0 0 0
BITMAP
ENDCHAR
STARTCHAR F001
ENCODING 61441
SWIDTH 540 0
DWIDTH 9 0
BBX 0 0 0 0
BITMAP
ENDCHAR
STARTCHAR F002
ENCODING 61442
SWIDTH 540 0
DWIDTH 9 0
BBX 0 0 0 0
BITMAP
ENDCHAR
STARTCHAR FB01
ENCODING 64257
SWIDTH 540 0
DWIDTH 9 0
BBX 0 0 0 0
BITMAP
ENDCHAR
STARTCHAR FB02
ENCODING 64258
SWIDTH 540 0
DWIDTH 9 0
BBX 0 0 0 0
BITMAP
ENDCHAR
ENDFONT
